<svg width="167" height="31" viewBox="0 0 167 31" fill="none" xmlns="http://www.w3.org/2000/svg">
<g clip-path="url(#clip0_33_48)">
<path d="M7.88806 24.1645C10.0941 24.1645 11.9216 23.6995 13.3694 22.7695C14.8172 21.8382 15.5418 20.4845 15.5418 18.7085C15.43 16.3125 13.5701 14.5157 9.96074 13.3184L8.02139 12.5472C7.5985 12.4181 7.29682 12.2915 7.11905 12.1623C7.0369 12.1091 6.96962 12.0373 6.92313 11.9533C6.87664 11.8693 6.85235 11.7756 6.85239 11.6805C6.85239 11.1458 7.22006 10.8797 7.9554 10.8797C8.86851 10.8797 9.54728 11.3279 9.99306 12.2269L14.9734 10.8784C13.7708 8.01092 11.453 6.57846 8.02139 6.57846C5.9716 6.57846 4.26658 7.09254 2.90769 8.11942C1.54879 9.145 0.868669 10.4832 0.868669 12.1288C0.868669 12.6428 0.946782 13.1182 1.10301 13.5573C1.25923 13.9965 1.49357 14.3814 1.80468 14.7121C2.11713 15.044 2.41746 15.3321 2.70702 15.5788C2.99657 15.8242 3.36424 16.0554 3.81137 16.2685C4.25581 16.483 4.59519 16.638 4.82953 16.7335C5.06387 16.8304 5.38171 16.9428 5.7817 17.0707L6.35004 17.2644L8.35673 17.9697C8.84561 18.1415 9.1648 18.2848 9.3089 18.4024C9.37932 18.4591 9.43532 18.5304 9.47266 18.611C9.51 18.6916 9.52769 18.7793 9.52439 18.8674C9.52439 19.4241 8.98029 19.7031 7.88806 19.7031C6.28405 19.7031 5.32515 19.0185 5.01404 17.6493L0 18.7408C0.623556 22.3575 3.25381 24.1645 7.88806 24.1645ZM23.5591 24.1645C25.7651 24.1645 27.3907 23.3507 28.4385 21.7258V23.8119H35.3232V6.93108H28.4385V16.1742C28.4385 18.0782 27.7584 19.0288 26.3995 19.0288C25.0177 19.0288 24.3268 18.0782 24.3268 16.1742V6.93108H17.4421V16.8162C17.4421 21.7155 19.4811 24.1645 23.5591 24.1645ZM45.2462 23.8119V14.57C45.2462 12.6648 45.925 11.7128 47.2839 11.7128C48.6657 11.7128 49.3579 12.6648 49.3579 14.57V23.8119H56.2413V13.928C56.2413 9.02875 54.2036 6.57846 50.1256 6.57846C47.9196 6.57846 46.2927 7.39221 45.2462 9.01712V6.93108H38.3602V23.8119H45.2462ZM65.9637 23.8119V14.57C65.9637 12.6648 66.6424 11.7128 68.0027 11.7128C69.3831 11.7128 70.074 12.6648 70.074 14.57V23.8119H76.9601V13.928C76.9601 9.02875 74.9211 6.57846 70.843 6.57846C68.637 6.57846 67.0101 7.39221 65.9637 9.01712V6.93108H59.0776V23.8119H65.9637ZM87.4838 31L98.6472 6.93108H91.4594L88.0494 15.5646L85.0084 6.93108H77.488L84.8077 22.1753L80.731 31H87.4838ZM105.894 24.1645C108.1 24.1645 109.928 23.6995 111.376 22.7695C112.825 21.8382 113.549 20.4845 113.549 18.7085C113.437 16.3125 111.576 14.5157 107.967 13.3184L106.027 12.5472C105.605 12.4181 105.304 12.2915 105.125 12.1623C105.043 12.1091 104.976 12.0373 104.929 11.9533C104.883 11.8693 104.858 11.7756 104.858 11.6805C104.858 11.1458 105.226 10.8797 105.962 10.8797C106.875 10.8797 107.555 11.3279 108.001 12.2269L112.981 10.8784C111.777 8.01092 109.46 6.57846 106.029 6.57846C103.979 6.57846 102.274 7.09254 100.915 8.11942C99.5549 9.14629 98.8761 10.4832 98.8761 12.13C98.8761 12.6441 98.9542 13.1195 99.1091 13.5586C99.2653 13.9978 99.4997 14.3827 99.8121 14.7134C100.123 15.0453 100.425 15.3334 100.714 15.5801C101.004 15.8255 101.372 16.0567 101.817 16.2698C102.262 16.4842 102.603 16.6392 102.837 16.7348C103.07 16.8317 103.389 16.9441 103.789 17.072L104.357 17.2657L106.363 17.971C106.853 18.1427 107.171 18.2861 107.315 18.4037C107.386 18.4602 107.442 18.5315 107.48 18.6121C107.517 18.6927 107.535 18.7804 107.532 18.8687C107.532 19.4254 106.986 19.7044 105.894 19.7044C104.291 19.7044 103.333 19.0198 103.02 17.6506L98.0061 18.7408C98.631 22.3575 101.26 24.1645 105.894 24.1645ZM119.093 5.90421C120.318 5.90421 121.265 5.6265 121.934 5.06979C122.601 4.51437 122.936 3.80783 122.936 2.95146C122.936 2.07571 122.613 1.36271 121.967 0.818917C121.32 0.27125 120.363 0 119.093 0C117.823 0 116.864 0.272542 116.217 0.818917C115.571 1.364 115.248 2.07571 115.248 2.95275C115.248 3.80783 115.583 4.51438 116.251 5.07108C116.92 5.6265 117.867 5.90421 119.093 5.90421ZM122.535 23.8119V6.93108H115.648V23.8119H122.535ZM132.959 24.1645C135.298 24.1645 136.968 23.3507 137.972 21.7258V23.8119H144.856V0.609667H137.972V9.04942C136.968 7.40254 135.298 6.57846 132.958 6.57846C130.597 6.57846 128.629 7.40771 127.059 9.06621C125.488 10.7234 124.702 12.825 124.702 15.3721C124.702 17.9167 125.488 20.0195 127.059 21.678C128.629 23.3353 130.598 24.1645 132.959 24.1645ZM134.831 19.127C133.849 19.127 133.064 18.7731 132.474 18.0678C131.883 17.3613 131.588 16.4623 131.588 15.3721C131.588 14.2807 131.877 13.383 132.457 12.6764C133.059 11.9699 133.849 11.6173 134.83 11.6173C135.81 11.6173 136.595 11.9699 137.186 12.6764C137.776 13.3817 138.071 14.2807 138.071 15.3721C138.071 16.4623 137.776 17.3613 137.186 18.0678C136.595 18.7731 135.811 19.127 134.831 19.127ZM157.319 24.1645C160.817 24.1645 163.547 23.1906 165.508 21.2453L162.666 17.586C161.263 18.6775 159.68 19.2226 157.92 19.2226C156.584 19.2226 155.497 18.9332 154.661 18.3572C153.826 17.7785 153.408 17.2218 153.408 16.687H166.343C166.455 16.3021 166.51 15.7997 166.51 15.1797C166.51 12.5266 165.602 10.4302 163.787 8.88925C161.97 7.34829 159.648 6.57846 156.817 6.57846C153.787 6.57846 151.392 7.44517 149.632 9.17858C147.872 10.9107 146.991 12.9967 146.991 15.4354C146.991 17.9387 147.92 20.0195 149.781 21.678C151.643 23.3353 154.154 24.1645 157.319 24.1645ZM160.293 13.6387H153.408C153.453 12.8469 153.81 12.2437 154.478 11.8252C155.146 11.408 155.938 11.2 156.851 11.2C157.764 11.2 158.556 11.4132 159.224 11.842C159.893 12.2695 160.249 12.8689 160.293 13.6387Z" fill="#25564B"/>
</g>
<defs>
<clipPath id="clip0_33_48">
<rect width="167" height="31" fill="white"/>
</clipPath>
</defs>
</svg>
